<?xml version="1.0" encoding="UTF-8"?>
<svg xmlns="http://www.w3.org/2000/svg" xmlns:xlink="http://www.w3.org/1999/xlink" viewBox="0 0 120 120" width="120px" height="120px">
<g id="surface194041159">
<path style=" stroke:none;fill-rule:nonzero;fill:rgb(80.000001%,80.000001%,80.000001%);fill-opacity:1;" d="M 105 92.5 C 105 99.40625 99.40625 105 92.5 105 L 27.5 105 C 20.597656 105 15 99.40625 15 92.5 L 15 27.5 C 15 20.59375 20.597656 15 27.5 15 L 92.5 15 C 99.40625 15 105 20.59375 105 27.5 Z M 105 92.5 "/>
<path style=" stroke:none;fill-rule:nonzero;fill:rgb(100%,100%,100%);fill-opacity:1;" d="M 82.574219 64 C 80.949219 61.75 78.601562 60.199219 75.574219 59.375 C 75.574219 59.375 78.125 58.449219 80.425781 55 C 81.800781 52.800781 82.5 50.148438 82.5 47.050781 C 82.5 41.675781 80.550781 37.550781 76.648438 34.726562 C 72.75 31.898438 68.351562 30 60.875 30 L 37.5 30 L 37.5 90 L 63.574219 90 C 70.648438 89.949219 75.976562 88.425781 79.601562 85.5 C 83.199219 82.523438 85 78.125 85 72.25 C 85 69 84.199219 66.25 82.574219 64 Z M 52.5 40 C 52.5 40 62.925781 40 63.125 40 C 66.925781 40 70 43.074219 70 46.875 C 70 50.675781 66.925781 53.75 63.125 53.75 C 62.925781 53.75 52.5 53.75 52.5 53.75 Z M 65 80 L 52.5 80 L 52.5 65 L 65 65 C 69.148438 65 72.5 68.351562 72.5 72.5 C 72.5 76.648438 69.148438 80 65 80 Z M 65 80 "/>
</g>
</svg>
