<?xml version="1.0" encoding="UTF-8"?>
<svg xmlns="http://www.w3.org/2000/svg" xmlns:xlink="http://www.w3.org/1999/xlink" viewBox="0 0 120 120" width="120px" height="120px">
<g id="surface193422043">
<path style=" stroke:none;fill-rule:nonzero;fill:rgb(80.000001%,80.000001%,80.000001%);fill-opacity:1;" d="M 101.710938 13.332031 C 100.953125 12.484375 99.867188 12 98.730469 12 L 21.269531 12 C 20.132812 12 19.046875 12.484375 18.289062 13.332031 C 17.527344 14.179688 17.167969 15.3125 17.292969 16.441406 L 26.101562 95.730469 C 26.277344 97.34375 27.414062 98.691406 28.976562 99.136719 L 58.894531 107.683594 C 59.257812 107.789062 59.628906 107.839844 59.996094 107.839844 C 60.363281 107.839844 60.734375 107.789062 61.097656 107.683594 L 91.015625 99.136719 C 92.574219 98.691406 93.710938 97.34375 93.890625 95.730469 L 102.703125 16.441406 C 102.832031 15.3125 102.472656 14.179688 101.710938 13.332031 Z M 82.0625 52.296875 L 80.28125 81.4375 L 60.128906 88.023438 L 39.976562 81.4375 L 39.210938 67.5 L 49.410156 67.5 L 49.667969 73.835938 L 60.128906 77.382812 L 70.589844 73.835938 L 71.351562 62.4375 L 48.902344 62.4375 L 48.394531 52.300781 L 71.863281 52.300781 L 72.628906 42.164062 L 37.425781 42.164062 L 36.660156 32.023438 L 83.339844 32.023438 Z M 82.0625 52.296875 "/>
</g>
</svg>
