<?xml version="1.0" encoding="UTF-8"?>
<svg xmlns="http://www.w3.org/2000/svg" xmlns:xlink="http://www.w3.org/1999/xlink" viewBox="0 0 120 120" width="120px" height="120px">
<g id="surface193632366">
<path style=" stroke:none;fill-rule:nonzero;fill:rgb(80.000001%,80.000001%,80.000001%);fill-opacity:1;" d="M 112.304688 53.015625 L 66.984375 7.695312 C 65.0625 5.765625 62.53125 4.800781 60 4.800781 C 57.46875 4.800781 54.9375 5.765625 53.015625 7.695312 L 44.054688 16.660156 L 55.144531 27.75 C 58.828125 25.585938 63.628906 26.054688 66.789062 29.210938 C 69.945312 32.371094 70.40625 37.171875 68.242188 40.847656 L 79.144531 51.75 C 82.828125 49.585938 87.628906 50.054688 90.789062 53.210938 C 94.539062 56.960938 94.539062 63.039062 90.789062 66.789062 C 87.039062 70.539062 80.960938 70.539062 77.210938 66.789062 C 74.054688 63.628906 73.585938 58.828125 75.75 55.144531 L 64.847656 44.242188 C 64.070312 44.699219 63.253906 45.039062 62.398438 45.253906 L 62.398438 74.738281 C 66.535156 75.804688 69.601562 79.527344 69.601562 84 C 69.601562 89.304688 65.304688 93.601562 60 93.601562 C 54.695312 93.601562 50.398438 89.304688 50.398438 84 C 50.398438 79.527344 53.464844 75.804688 57.601562 74.738281 L 57.601562 45.253906 C 55.996094 44.839844 54.46875 44.042969 53.210938 42.789062 C 50.054688 39.628906 49.59375 34.828125 51.757812 31.152344 L 40.660156 20.054688 L 7.695312 53.015625 C 3.835938 56.867188 3.835938 63.132812 7.695312 66.984375 L 53.015625 112.304688 C 54.9375 114.234375 57.46875 115.199219 60 115.199219 C 62.53125 115.199219 65.0625 114.234375 66.984375 112.304688 L 112.304688 66.984375 C 116.164062 63.132812 116.164062 56.867188 112.304688 53.015625 Z M 112.304688 53.015625 "/>
</g>
</svg>
