<?xml version="1.0" encoding="UTF-8"?>
<svg xmlns="http://www.w3.org/2000/svg" xmlns:xlink="http://www.w3.org/1999/xlink" viewBox="0 0 120 120" width="120px" height="120px">
<g id="surface194036281">
<path style=" stroke:none;fill-rule:nonzero;fill:rgb(80.000001%,80.000001%,80.000001%);fill-opacity:1;" d="M 108.65625 5.578125 C 108.203125 5.082031 107.5625 4.800781 106.886719 4.800781 L 13.113281 4.800781 C 12.4375 4.800781 11.796875 5.082031 11.34375 5.578125 C 10.886719 6.078125 10.664062 6.742188 10.722656 7.414062 L 19.171875 102.039062 C 19.261719 103.027344 19.949219 103.859375 20.902344 104.132812 L 59.328125 115.109375 C 59.542969 115.167969 59.765625 115.199219 59.984375 115.199219 C 60.207031 115.199219 60.429688 115.167969 60.644531 115.109375 L 99.101562 104.132812 C 100.054688 103.859375 100.746094 103.027344 100.832031 102.039062 L 109.277344 7.414062 C 109.335938 6.742188 109.109375 6.078125 108.65625 5.578125 Z M 28.800781 69.609375 L 45.601562 74.269531 L 45.601562 26.398438 L 55.199219 26.398438 L 55.199219 88.800781 L 28.800781 81.476562 Z M 91.328125 52.800781 L 88.800781 82.199219 L 64.800781 88.800781 L 64.800781 77.757812 L 81 73.304688 L 81.601562 64.304688 L 64.800781 67.199219 L 64.800781 26.398438 L 93.601562 26.398438 L 92.773438 36 L 74.398438 36 L 74.398438 55.199219 Z M 91.328125 52.800781 "/>
</g>
</svg>
