<?xml version="1.0" encoding="UTF-8"?>
<svg xmlns="http://www.w3.org/2000/svg" xmlns:xlink="http://www.w3.org/1999/xlink" viewBox="0 0 120 120" width="120px" height="120px">
<g id="surface193560070">
<path style=" stroke:none;fill-rule:nonzero;fill:rgb(92.54902%,94.117647%,94.509804%);fill-opacity:1;" d="M 105 43.25 C 105 94.5 60 110 60 110 C 60 110 15 94.5 15 43.25 C 15 37 15.5 31.75 16 27.5 C 16.75 21.25 21 16.25 27 14.75 C 34.75 12.5 47 10 60 10 C 73 10 85.25 12.5 93.25 14.75 C 99.25 16.25 103.5 21.5 104.25 27.5 C 104.5 31.75 105 37.25 105 43.25 Z M 105 43.25 "/>
<path style=" stroke:none;fill-rule:nonzero;fill:rgb(80.000001%,80.000001%,80.000001%);fill-opacity:1;" d="M 60 17.5 C 72.25 17.5 83.75 20 91.25 22 C 94.25 22.75 96.25 25.25 96.75 28.5 C 97.25 33.25 97.5 38.25 97.5 43.25 C 97.5 82.25 68.75 98 60 101.75 C 51.25 97.75 22.5 82 22.5 43.25 C 22.5 38.25 22.75 33.25 23.25 28.5 C 23.5 25.25 25.75 22.75 28.75 22 C 36.25 20 47.75 17.5 60 17.5 M 60 10 C 47 10 34.75 12.5 26.75 14.75 C 21 16.25 16.5 21.5 16 27.5 C 15.5 31.75 15 37.25 15 43.25 C 15 94.5 60 110 60 110 C 60 110 105 94.5 105 43.25 C 105 37 104.5 31.75 104 27.5 C 103.25 21.25 99 16.25 93 14.75 C 85.25 12.5 73 10 60 10 Z M 60 10 "/>
<path style=" stroke:none;fill-rule:nonzero;fill:rgb(80.000001%,80.000001%,80.000001%);fill-opacity:1;" d="M 57.5 70 L 62.5 70 L 62.5 90 L 57.5 90 Z M 57.5 70 "/>
<path style=" stroke:none;fill-rule:nonzero;fill:rgb(80.000001%,80.000001%,80.000001%);fill-opacity:1;" d="M 60 25 C 60 25 45 37.5 45 57.5 C 45 70.5 53.25 78.75 57.5 82.5 L 60 75 L 62.5 82.5 C 66.75 78.75 75 70.5 75 57.5 C 75 37.5 60 25 60 25 Z M 60 25 "/>
<path style=" stroke:none;fill-rule:nonzero;fill:rgb(80.000001%,80.000001%,80.000001%);fill-opacity:1;" d="M 60 25 C 60 25 45 37.5 45 57.5 C 45 70.5 53.25 78.75 57.5 82.5 L 60 75 Z M 60 25 "/>
</g>
</svg>
