<?xml version="1.0" encoding="UTF-8"?>
<svg xmlns="http://www.w3.org/2000/svg" xmlns:xlink="http://www.w3.org/1999/xlink" viewBox="0 0 120 120" width="120px" height="120px">
<g id="surface194138761">
<path style=" stroke:none;fill-rule:nonzero;fill:rgb(80.000001%,80.000001%,80.000001%);fill-opacity:1;" d="M 60.015625 113.546875 C 58.582031 113.546875 57.160156 113.171875 55.902344 112.449219 L 42.800781 104.691406 C 40.84375 103.59375 41.800781 103.207031 42.445312 102.984375 C 45.054688 102.074219 45.582031 101.863281 48.367188 100.28125 C 48.660156 100.113281 49.042969 100.175781 49.34375 100.351562 L 59.40625 106.324219 C 59.769531 106.523438 60.289062 106.523438 60.621094 106.324219 L 99.863281 83.671875 C 100.226562 83.464844 100.464844 83.046875 100.464844 82.613281 L 100.464844 37.328125 C 100.464844 36.878906 100.230469 36.476562 99.859375 36.25 L 60.632812 13.613281 C 60.269531 13.398438 59.789062 13.398438 59.425781 13.613281 L 20.203125 36.246094 C 19.824219 36.460938 19.582031 36.886719 19.582031 37.316406 L 19.582031 82.601562 C 19.582031 83.035156 19.816406 83.449219 20.191406 83.652344 L 30.941406 89.859375 C 36.773438 92.777344 40.339844 89.339844 40.339844 85.882812 L 40.339844 41.191406 C 40.339844 40.550781 40.839844 40.058594 41.480469 40.058594 L 46.449219 40.058594 C 47.070312 40.058594 47.578125 40.550781 47.578125 41.191406 L 47.578125 85.90625 C 47.578125 93.683594 43.335938 98.15625 35.960938 98.15625 C 33.691406 98.15625 31.902344 98.15625 26.914062 95.699219 L 16.617188 89.765625 C 14.074219 88.292969 12.5 85.539062 12.5 82.605469 L 12.5 37.320312 C 12.5 34.371094 14.074219 31.621094 16.613281 30.167969 L 55.898438 7.503906 C 58.386719 6.101562 61.683594 6.101562 64.152344 7.503906 L 103.386719 30.175781 C 105.917969 31.640625 107.5 34.382812 107.5 37.328125 L 107.5 82.613281 C 107.5 85.550781 105.917969 88.292969 103.386719 89.765625 L 64.148438 112.425781 C 62.890625 113.15625 61.46875 113.527344 60.015625 113.527344 "/>
<path style=" stroke:none;fill-rule:nonzero;fill:rgb(80.000001%,80.000001%,80.000001%);fill-opacity:1;" d="M 72.140625 82.34375 C 54.96875 82.34375 51.371094 74.460938 51.371094 67.851562 C 51.371094 67.222656 51.878906 66.71875 52.507812 66.71875 L 57.578125 66.71875 C 58.136719 66.71875 58.609375 67.128906 58.699219 67.679688 C 59.460938 72.84375 61.742188 75.449219 72.125 75.449219 C 80.394531 75.449219 83.914062 73.582031 83.914062 69.195312 C 83.914062 66.671875 82.910156 64.796875 70.0625 63.539062 C 59.316406 62.476562 52.675781 60.109375 52.675781 51.515625 C 52.675781 43.597656 59.355469 38.882812 70.542969 38.882812 C 83.109375 38.882812 89.335938 43.246094 90.121094 52.613281 C 90.148438 52.941406 90.03125 53.253906 89.816406 53.488281 C 89.601562 53.714844 89.296875 53.851562 88.980469 53.851562 L 83.882812 53.851562 C 83.351562 53.851562 82.890625 53.480469 82.78125 52.96875 C 81.554688 47.535156 78.585938 45.796875 70.523438 45.796875 C 61.496094 45.796875 60.445312 48.941406 60.445312 51.296875 C 60.445312 54.15625 61.683594 54.988281 73.863281 56.601562 C 85.925781 58.203125 91.652344 60.460938 91.652344 68.941406 C 91.652344 77.484375 84.519531 82.386719 72.085938 82.386719 "/>
</g>
</svg>
