<?xml version="1.0" encoding="UTF-8"?>
<svg xmlns="http://www.w3.org/2000/svg" xmlns:xlink="http://www.w3.org/1999/xlink" viewBox="0 0 120 120" width="120px" height="120px">
<g id="surface193639977">
<path style=" stroke:none;fill-rule:nonzero;fill:rgb(80.000001%,80.000001%,80.000001%);fill-opacity:1;" d="M 10.421875 42.820312 C 0.945312 70.203125 15.464844 100.082031 42.847656 109.558594 C 70.230469 119.035156 100.113281 104.523438 109.589844 77.136719 C 119.066406 49.753906 104.550781 19.875 77.167969 10.398438 C 49.785156 0.921875 19.902344 15.433594 10.421875 42.820312 Z M 10.421875 42.820312 "/>
<path style=" stroke:none;fill-rule:nonzero;fill:rgb(80.000001%,80.000001%,80.000001%);fill-opacity:1;" d="M 90.460938 90.460938 C 73.628906 107.289062 46.339844 107.285156 29.511719 90.449219 C 12.683594 73.617188 12.6875 46.328125 29.523438 29.5 C 46.355469 12.671875 73.644531 12.675781 90.472656 29.507812 C 93.859375 32.898438 96.660156 36.832031 98.757812 41.144531 C 106.785156 57.667969 103.457031 77.46875 90.460938 90.460938 Z M 90.460938 90.460938 "/>
<path style=" stroke:none;fill-rule:nonzero;fill:rgb(80.000001%,80.000001%,80.000001%);fill-opacity:1;" d="M 108.871094 36.230469 C 95.753906 9.234375 63.238281 -2.015625 36.242188 11.101562 C 23.28125 17.398438 13.351562 28.589844 8.636719 42.207031 C -1.195312 70.570312 13.828125 101.53125 42.1875 111.363281 C 70.550781 121.191406 101.511719 106.171875 111.34375 77.8125 C 116.113281 64.179688 115.222656 49.203125 108.871094 36.230469 Z M 107.804688 76.519531 C 98.652344 102.917969 69.832031 116.902344 43.429688 107.753906 C 17.027344 98.601562 3.042969 69.78125 12.191406 43.378906 C 21.34375 16.976562 50.164062 2.996094 76.566406 12.144531 C 89.246094 16.542969 99.65625 25.789062 105.515625 37.863281 C 111.375 49.933594 112.195312 63.839844 107.804688 76.519531 Z M 107.804688 76.519531 "/>
<path style=" stroke:none;fill-rule:nonzero;fill:rgb(80.000001%,80.000001%,80.000001%);fill-opacity:1;" d="M 86.484375 86.484375 C 85.753906 87.214844 85.753906 88.402344 86.484375 89.132812 L 89.136719 91.78125 C 89.867188 92.515625 91.054688 92.515625 91.785156 91.78125 C 92.515625 91.050781 92.515625 89.863281 91.785156 89.132812 L 89.136719 86.484375 C 88.40625 85.753906 87.21875 85.753906 86.484375 86.484375 Z M 86.484375 86.484375 "/>
<path style=" stroke:none;fill-rule:nonzero;fill:rgb(80.000001%,80.000001%,80.000001%);fill-opacity:1;" d="M 94.542969 78.640625 C 93.628906 78.152344 92.492188 78.503906 92.011719 79.414062 C 91.546875 80.285156 91.839844 81.367188 92.675781 81.886719 L 95.921875 83.753906 C 96.824219 84.269531 97.976562 83.953125 98.492188 83.050781 C 99.007812 82.144531 98.691406 80.996094 97.789062 80.480469 Z M 94.542969 78.640625 "/>
<path style=" stroke:none;fill-rule:nonzero;fill:rgb(80.000001%,80.000001%,80.000001%);fill-opacity:1;" d="M 70.945312 95.453125 C 69.945312 95.71875 69.347656 96.75 69.617188 97.746094 C 69.617188 97.75 69.617188 97.753906 69.621094 97.761719 L 70.589844 101.378906 C 70.898438 102.367188 71.949219 102.914062 72.9375 102.605469 C 73.867188 102.316406 74.417969 101.359375 74.203125 100.410156 L 73.238281 96.792969 C 72.976562 95.792969 71.953125 95.191406 70.953125 95.453125 C 70.949219 95.453125 70.945312 95.453125 70.945312 95.453125 Z M 70.945312 95.453125 "/>
<path style=" stroke:none;fill-rule:nonzero;fill:rgb(80.000001%,80.000001%,80.000001%);fill-opacity:1;" d="M 97.761719 69.617188 C 96.75 69.390625 95.75 70.027344 95.527344 71.039062 C 95.3125 71.988281 95.863281 72.941406 96.796875 73.234375 L 100.410156 74.203125 C 101.421875 74.425781 102.421875 73.789062 102.648438 72.78125 C 102.859375 71.828125 102.308594 70.875 101.378906 70.585938 Z M 97.761719 69.617188 "/>
<path style=" stroke:none;fill-rule:nonzero;fill:rgb(80.000001%,80.000001%,80.000001%);fill-opacity:1;" d="M 79.304688 91.996094 C 78.414062 92.519531 78.113281 93.660156 78.628906 94.554688 L 80.484375 97.785156 C 80.96875 98.703125 82.105469 99.046875 83.015625 98.5625 C 83.933594 98.078125 84.28125 96.941406 83.792969 96.03125 C 83.773438 95.992188 83.753906 95.953125 83.730469 95.917969 L 81.863281 92.671875 C 81.339844 91.78125 80.199219 91.480469 79.304688 91.996094 Z M 79.304688 91.996094 "/>
<path style=" stroke:none;fill-rule:nonzero;fill:rgb(80.000001%,80.000001%,80.000001%);fill-opacity:1;" d="M 59.230469 19.292969 C 60.257812 19.152344 60.972656 18.203125 60.828125 17.179688 C 60.71875 16.386719 60.113281 15.75 59.324219 15.597656 C 57.757812 15.574219 56.191406 15.636719 54.632812 15.785156 C 53.597656 15.816406 52.785156 16.6875 52.824219 17.71875 C 52.855469 18.753906 53.722656 19.5625 54.757812 19.527344 C 54.835938 19.527344 54.914062 19.519531 54.988281 19.503906 C 56.398438 19.359375 57.816406 19.289062 59.230469 19.292969 Z M 59.230469 19.292969 "/>
<path style=" stroke:none;fill-rule:nonzero;fill:rgb(80.000001%,80.000001%,80.000001%);fill-opacity:1;" d="M 21.46875 45.792969 C 25.621094 33.871094 35.226562 24.652344 47.304688 20.988281 C 48.296875 20.691406 48.859375 19.648438 48.5625 18.65625 C 48.269531 17.664062 47.222656 17.101562 46.230469 17.398438 C 33.039062 21.414062 22.546875 31.476562 17.996094 44.496094 C 17.628906 45.464844 18.113281 46.546875 19.082031 46.914062 C 20.050781 47.28125 21.132812 46.792969 21.5 45.828125 C 21.511719 45.796875 21.523438 45.761719 21.53125 45.726562 Z M 21.46875 45.792969 "/>
<path style=" stroke:none;fill-rule:nonzero;fill:rgb(100%,97.254902%,93.333334%);fill-opacity:1;" d="M 78.765625 43.511719 C 78.609375 42.917969 78.359375 42.40625 78 41.996094 L 56.875 63.339844 L 59.605469 66.023438 L 75.46875 49.929688 C 75.515625 49.886719 78.9375 46.511719 78.765625 43.511719 Z M 78.765625 43.511719 "/>
<path style=" stroke:none;fill-rule:nonzero;fill:rgb(100%,97.254902%,93.333334%);fill-opacity:1;" d="M 58.28125 66.5625 L 55.726562 64.046875 L 52.429688 67.460938 Z M 58.28125 66.5625 "/>
<path style=" stroke:none;fill-rule:nonzero;fill:rgb(100%,97.254902%,93.333334%);fill-opacity:1;" d="M 59.449219 67.707031 L 50.925781 69.019531 L 35.300781 85.1875 L 41.859375 91.636719 L 42.1875 91.640625 L 40.546875 84.84375 C 40.546875 84.84375 49.585938 80.738281 61.671875 69.890625 Z M 59.449219 67.707031 "/>
<path style=" stroke:none;fill-rule:nonzero;fill:rgb(100%,97.254902%,93.333334%);fill-opacity:1;" d="M 34.390625 86.132812 L 29.296875 91.40625 L 39.953125 91.597656 Z M 34.390625 86.132812 "/>
<path style=" stroke:none;fill-rule:nonzero;fill:rgb(100%,97.254902%,93.333334%);fill-opacity:1;" d="M 76.394531 50.859375 L 60.539062 66.941406 L 62.644531 69.011719 C 62.859375 68.816406 63.066406 68.636719 63.28125 68.4375 C 74.703125 57.84375 77.105469 53.324219 78.320312 48.519531 C 77.410156 49.855469 76.472656 50.785156 76.394531 50.859375 Z M 76.394531 50.859375 "/>
<path style=" stroke:none;fill-rule:nonzero;fill:rgb(100%,97.254902%,93.333334%);fill-opacity:1;" d="M 55.941406 62.417969 L 76.960938 41.179688 C 75.320312 40.3125 72.789062 40.421875 69.84375 41.484375 C 63.984375 43.59375 56.953125 51.328125 56.953125 51.328125 L 51.3125 57.871094 Z M 55.941406 62.417969 "/>
<path style=" stroke:none;fill-rule:nonzero;fill:rgb(100%,97.254902%,93.333334%);fill-opacity:1;" d="M 50.453125 58.867188 L 45.234375 64.921875 L 54.804688 63.140625 Z M 50.453125 58.867188 "/>
<path style=" stroke:none;fill-rule:nonzero;fill:rgb(100%,97.254902%,93.333334%);fill-opacity:1;" d="M 81.5625 37.019531 C 81.4375 36.890625 81.371094 36.714844 81.375 36.539062 C 81.382812 36.359375 81.460938 36.191406 81.59375 36.074219 L 89.128906 29.324219 C 87.769531 28.292969 86.097656 27.65625 84.257812 27.65625 C 79.792969 27.65625 76.171875 31.277344 76.171875 35.742188 C 76.171875 40.210938 79.792969 43.828125 84.257812 43.828125 C 85.410156 43.828125 86.5 43.582031 87.492188 43.148438 Z M 81.5625 37.019531 "/>
<path style=" stroke:none;fill-rule:nonzero;fill:rgb(100%,97.254902%,93.333334%);fill-opacity:1;" d="M 82.976562 36.597656 L 88.6875 42.496094 C 90.886719 41.050781 92.34375 38.570312 92.34375 35.742188 C 92.34375 33.589844 91.488281 31.644531 90.117188 30.195312 Z M 90.351562 38.261719 C 90.238281 38.492188 90.003906 38.625 89.765625 38.625 C 89.667969 38.625 89.566406 38.601562 89.472656 38.554688 C 89.148438 38.394531 89.015625 38 89.179688 37.675781 C 89.949219 36.140625 89.433594 35.019531 89.414062 34.972656 C 89.257812 34.648438 89.394531 34.257812 89.71875 34.101562 C 90.039062 33.945312 90.425781 34.070312 90.589844 34.394531 C 90.621094 34.460938 91.425781 36.117188 90.351562 38.261719 Z M 90.351562 38.261719 "/>
</g>
</svg>
