<?xml version="1.0" encoding="UTF-8"?>
<svg xmlns="http://www.w3.org/2000/svg" xmlns:xlink="http://www.w3.org/1999/xlink" viewBox="0 0 120 120" width="120px" height="120px">
<g id="surface194234022">
<path style=" stroke:none;fill-rule:nonzero;fill:rgb(80.000001%,80.000001%,80.000001%);fill-opacity:1;" d="M 112.5 73.289062 C 112.5 71.699219 108.285156 70.40625 103.078125 70.40625 C 98.546875 70.40625 94.777344 71.386719 93.871094 72.683594 C 84.90625 68.449219 75.9375 64.214844 66.972656 59.976562 C 63.851562 58.503906 60.289062 58.515625 57.175781 60.011719 C 47.632812 64.605469 38.085938 69.199219 28.542969 73.789062 C 26.382812 73.476562 23.773438 73.289062 20.960938 73.289062 C 13.519531 73.289062 7.5 74.578125 7.5 76.171875 L 7.5 84.824219 C 7.5 84.90625 7.582031 84.984375 7.613281 85.0625 C 7.246094 86.449219 7.789062 88.074219 9.234375 88.757812 C 23.335938 95.421875 37.4375 102.078125 51.539062 108.742188 C 55.121094 110.433594 59.210938 110.421875 62.78125 108.703125 C 78.886719 100.953125 94.988281 93.203125 111.097656 85.453125 C 112.308594 84.871094 112.726562 83.488281 112.371094 82.335938 C 112.425781 82.203125 112.5 82.074219 112.5 81.9375 Z M 112.5 73.289062 "/>
<path style=" stroke:none;fill-rule:nonzero;fill:rgb(92.54902%,94.117647%,94.509804%);fill-opacity:1;" d="M 51.539062 97.894531 C 37.4375 91.589844 23.335938 85.285156 9.234375 78.980469 C 6.929688 77.949219 6.921875 74.664062 9.21875 73.613281 C 25.203125 66.335938 41.191406 59.054688 57.175781 51.773438 C 60.289062 50.359375 63.851562 50.34375 66.972656 51.738281 C 81.675781 58.316406 96.378906 64.886719 111.082031 71.460938 C 112.96875 72.304688 112.976562 74.996094 111.097656 75.851562 C 94.992188 83.1875 78.886719 90.523438 62.78125 97.855469 C 59.210938 99.480469 55.121094 99.496094 51.539062 97.894531 Z M 51.539062 97.894531 "/>
<path style=" stroke:none;fill-rule:nonzero;fill:rgb(80.000001%,80.000001%,80.000001%);fill-opacity:1;" d="M 112.5 54.1875 C 112.5 52.59375 108.285156 51.304688 103.078125 51.304688 C 98.546875 51.304688 94.777344 52.28125 93.871094 53.582031 C 84.90625 49.347656 75.9375 45.113281 66.972656 40.875 C 63.851562 39.398438 60.289062 39.414062 57.175781 40.910156 C 47.632812 45.503906 38.085938 50.09375 28.542969 54.6875 C 26.382812 54.371094 23.773438 54.183594 20.960938 54.183594 C 13.519531 54.1875 7.5 55.480469 7.5 57.074219 L 7.5 65.722656 C 7.5 65.804688 7.582031 65.882812 7.613281 65.960938 C 7.246094 67.351562 7.789062 68.976562 9.234375 69.65625 C 23.335938 76.320312 37.4375 82.980469 51.539062 89.640625 C 55.121094 91.335938 59.210938 91.320312 62.78125 89.601562 C 78.886719 81.851562 94.988281 74.105469 111.097656 66.355469 C 112.308594 65.773438 112.726562 64.390625 112.371094 63.238281 C 112.425781 63.105469 112.5 62.976562 112.5 62.835938 Z M 112.5 54.1875 "/>
<path style=" stroke:none;fill-rule:nonzero;fill:rgb(92.54902%,94.117647%,94.509804%);fill-opacity:1;" d="M 51.539062 78.792969 C 37.4375 72.488281 23.335938 66.183594 9.234375 59.878906 C 6.929688 58.847656 6.921875 55.558594 9.21875 54.511719 C 25.203125 47.234375 41.191406 39.953125 57.175781 32.671875 C 60.289062 31.253906 63.851562 31.242188 66.972656 32.636719 C 81.675781 39.210938 96.378906 45.785156 111.082031 52.359375 C 112.96875 53.203125 112.976562 55.894531 111.097656 56.75 C 94.992188 64.085938 78.886719 71.421875 62.78125 78.753906 C 59.210938 80.378906 55.121094 80.394531 51.539062 78.792969 Z M 51.539062 78.792969 "/>
<path style=" stroke:none;fill-rule:nonzero;fill:rgb(80.000001%,80.000001%,80.000001%);fill-opacity:1;" d="M 112.5 35.085938 C 112.5 33.496094 108.285156 32.203125 103.078125 32.203125 C 98.546875 32.203125 94.777344 33.183594 93.871094 34.484375 C 84.90625 30.246094 75.9375 26.011719 66.972656 21.773438 C 63.851562 20.300781 60.289062 20.316406 57.175781 21.808594 C 47.632812 26.402344 38.085938 30.996094 28.542969 35.585938 C 26.382812 35.273438 23.773438 35.085938 20.960938 35.085938 C 13.519531 35.085938 7.5 36.378906 7.5 37.96875 L 7.5 46.621094 C 7.5 46.703125 7.582031 46.78125 7.613281 46.859375 C 7.246094 48.246094 7.789062 49.871094 9.234375 50.554688 C 23.335938 57.21875 37.4375 63.878906 51.539062 70.539062 C 55.121094 72.234375 59.210938 72.21875 62.78125 70.5 C 78.886719 62.75 94.988281 55.003906 111.097656 47.253906 C 112.308594 46.671875 112.726562 45.289062 112.371094 44.136719 C 112.425781 44.003906 112.5 43.871094 112.5 43.734375 Z M 112.5 35.085938 "/>
<path style=" stroke:none;fill-rule:nonzero;fill:rgb(92.54902%,94.117647%,94.509804%);fill-opacity:1;" d="M 51.539062 59.691406 C 37.4375 53.386719 23.335938 47.082031 9.234375 40.777344 C 6.929688 39.746094 6.921875 36.460938 9.21875 35.414062 C 25.203125 28.132812 41.191406 20.851562 57.175781 13.574219 C 60.289062 12.15625 63.851562 12.140625 66.972656 13.539062 C 81.675781 20.113281 96.378906 26.683594 111.082031 33.261719 C 112.96875 34.101562 112.976562 36.796875 111.097656 37.648438 C 94.992188 44.984375 78.886719 52.320312 62.78125 59.652344 C 59.210938 61.28125 55.121094 61.292969 51.539062 59.691406 Z M 51.539062 59.691406 "/>
<path style=" stroke:none;fill-rule:nonzero;fill:rgb(58.431375%,64.705884%,65.098041%);fill-opacity:1;" d="M 46.871094 36.851562 C 46.863281 39.457031 39.964844 41.996094 34.136719 42.066406 C 28.089844 42.140625 20.953125 39.585938 20.933594 36.941406 C 20.910156 34.289062 28.039062 31.539062 34.210938 31.601562 C 40.042969 31.664062 46.878906 34.257812 46.871094 36.851562 Z M 46.871094 36.851562 "/>
<path style=" stroke:none;fill-rule:nonzero;fill:rgb(58.431375%,64.705884%,65.098041%);fill-opacity:1;" d="M 42.59375 46.175781 C 48.578125 48.734375 54.558594 51.289062 60.539062 53.84375 C 63.175781 49.945312 65.808594 46.046875 68.445312 42.144531 C 59.828125 43.488281 51.210938 44.835938 42.59375 46.175781 Z M 42.59375 46.175781 "/>
<path style=" stroke:none;fill-rule:nonzero;fill:rgb(58.431375%,64.705884%,65.098041%);fill-opacity:1;" d="M 54.648438 24.4375 C 51.898438 25.441406 49.140625 26.441406 46.390625 27.441406 C 50.15625 27.773438 53.925781 28.101562 57.695312 28.429688 C 58.894531 30.421875 60.09375 32.410156 61.292969 34.398438 C 62.03125 32.59375 62.765625 30.789062 63.503906 28.984375 C 66.71875 28.734375 69.933594 28.484375 73.148438 28.234375 C 70.65625 27.183594 68.164062 26.136719 65.671875 25.085938 C 66.308594 23.566406 66.941406 22.046875 67.578125 20.523438 C 65.152344 21.246094 62.730469 21.972656 60.304688 22.699219 C 57.628906 21.640625 54.953125 20.589844 52.28125 19.535156 C 53.070312 21.171875 53.859375 22.804688 54.648438 24.4375 Z M 54.648438 24.4375 "/>
<path style=" stroke:none;fill-rule:nonzero;fill:rgb(80.000001%,80.000001%,80.000001%);fill-opacity:1;" d="M 68.167969 36.546875 C 73.84375 34.28125 79.523438 32.015625 85.203125 29.75 C 90.109375 31.835938 95.011719 33.921875 99.917969 36.003906 C 94.414062 38.195312 88.910156 40.386719 83.40625 42.578125 C 78.328125 40.566406 73.246094 38.558594 68.167969 36.546875 Z M 68.167969 36.546875 "/>
<path style=" stroke:none;fill-rule:nonzero;fill:rgb(58.431375%,64.705884%,65.098041%);fill-opacity:1;" d="M 85.203125 29.90625 C 85.191406 33.898438 85.179688 37.886719 85.167969 41.875 C 90.085938 39.917969 95.003906 37.960938 99.921875 36.003906 C 95.015625 33.972656 90.109375 31.941406 85.203125 29.90625 Z M 85.203125 29.90625 "/>
</g>
</svg>
